<?xml version="1.0" standalone="no"?><!DOCTYPE svg PUBLIC "-//W3C//DTD SVG 1.1//EN" "http://www.w3.org/Graphics/SVG/1.1/DTD/svg11.dtd"><svg t="1708256990306" class="icon" viewBox="0 0 1024 1024" version="1.1" xmlns="http://www.w3.org/2000/svg" p-id="4368" xmlns:xlink="http://www.w3.org/1999/xlink" width="200" height="200"><path d="M786.816 392.768c-59.04 0-112.096 24.608-149.856 64.704-16 16.992-43.776 37.12-73.792 54.816 14.112-53.856 58.688-121.696 89.632-151.456 39.648-38.176 64-91.84 64-151.488C716.8 94.432 625.312 1.216 512 0c-113.312 1.216-204.8 94.432-204.8 209.312 0 59.68 24.352 113.344 64 151.488 30.944 29.76 75.52 97.6 89.632 151.456-30.048-17.696-57.792-37.824-73.792-54.816-37.76-40.096-90.816-64.704-149.856-64.704-114.4 0-207.072 93.664-207.072 209.344 0 115.648 92.704 209.344 207.072 209.344 59.04 0 112.096-25.344 149.856-65.44 16.8-17.856 46.432-40.128 78.304-58.624-3.008 147.68-73.536 256.16-145.312 298.912L320 1024l192 0 192 0 0-37.728c-71.808-42.72-142.304-151.232-145.312-298.912 31.84 18.496 61.472 40.768 78.304 58.624 37.76 40.096 90.816 65.44 149.856 65.44 114.4 0 207.072-93.696 207.072-209.344C993.92 486.432 901.216 392.768 786.816 392.768z" fill="#000000" p-id="4369"></path></svg>